/* XPM */
static char *_d2769788b804474a842728c707e687ckPvS325YjDfuuj5A[] = {
/* columns rows colors chars-per-pixel */
"40 40 107 2 ",
"   c #663F2E",
".  c #6F3F2E",
"X  c #753228",
"o  c #7D332B",
"O  c #773E2F",
"+  c #376D37",
"@  c #3A6C37",
"#  c #2E7439",
"$  c #277E3C",
"%  c #287E3C",
"&  c #33743A",
"*  c #31783C",
"=  c #39793E",
"-  c #5B472E",
";  c #524E2E",
":  c #5C4B2F",
">  c #43512F",
",  c #5F4D31",
"<  c #4F5C34",
"1  c #5D5434",
"2  c #545C36",
"3  c #595F39",
"4  c #73402F",
"5  c #6B4731",
"6  c #6C4B33",
"7  c #7E4C38",
"8  c #6C5237",
"9  c #655F3B",
"0  c #705237",
"q  c #735639",
"w  c #7F553C",
"e  c #795A3D",
"r  c #416436",
"t  c #4C6236",
"y  c #406937",
"u  c #53643B",
"i  c #5A623B",
"p  c #556A3D",
"a  c #5A693D",
"s  c #64673F",
"d  c #6E623E",
"f  c #3B7D41",
"g  c #4C7541",
"h  c #447B42",
"j  c #537442",
"k  c #83362D",
"l  c #86382F",
"z  c #88382F",
"x  c #863931",
"c  c #8B3A31",
"v  c #8F3F38",
"b  c #933E34",
"n  c #983F36",
"m  c #903F38",
"M  c #824435",
"N  c #834A37",
"B  c #864D39",
"V  c #964037",
"C  c #994037",
"Z  c #954139",
"A  c #9B433A",
"S  c #934C3D",
"D  c #9B4D3F",
"F  c #80563C",
"G  c #A4463D",
"H  c #A9473E",
"J  c #AB483F",
"K  c #A94840",
"L  c #AA4941",
"P  c #AD4940",
"I  c #AC4941",
"U  c #AD4941",
"Y  c #AE4941",
"T  c #B14A42",
"R  c #B24A42",
"E  c #B34A42",
"W  c #B34B42",
"Q  c #29803E",
"!  c #2A803E",
"~  c #2A813F",
"^  c #2B813F",
"/  c #2B8140",
"(  c #2A8240",
")  c #2C8340",
"_  c #2D8442",
"`  c #2D8543",
"'  c #2E8643",
"]  c #2E8544",
"[  c #2F8744",
"{  c #2F8844",
"}  c #2F8846",
"|  c #348142",
" . c #348343",
".. c #318544",
"X. c #308745",
"o. c #328645",
"O. c #348544",
"+. c #388244",
"@. c #308845",
"#. c #318947",
"$. c #338846",
"%. c #318A47",
"&. c #318B48",
"*. c #328C48",
"=. c #338C49",
"-. c #328D49",
";. c #348E4A",
/* pixels */
";.;.=.=.=.=.=.=.-.=.-.-.=.-.;.=.=.&.=.&.&.&.&.&.%.&.&.&.&.;.%.&.;.^ ;.;.;.^ ;.;.",
"=.=.=.%.=.=.*.*.=.} } =.-.h o.} &.&.&.&.&.&.&.&.&.&.%.%.%.%.%.&.;.;.;.;.;.;.;.;.",
"=.%.=.%.%.%.*.%.=.} } } } u 3 o.%.%.%.%.&.[ &.&.o.&.&.%.%.%.%.%.^ ;.^ $.-.-.^ ;.",
"%.%.%.%.{ %.%.%.-.} } } &.[ > 3 o. .h j j g [ [ o.[ [ [ [ [ [ o.;.^ ;.-.^ ;.;.^ ",
"&.&.[ [ ' { { { } } { [ o.o.o.- 8 Z K K P K D s +.' %.' ' [ [ [ ^ -.^ -.;.! ;.^ ",
"[ [ [ [ { ' [ { { ` { ` ' g S A   0 P T T K K K G w h o.[ [ [ [ ;.^ ;.^ ^ -.^ ;.",
"[ [ [ ` [ [ [ [ ` ` [ g e A n v Z 5 S P K K P K A A G d [ [ ' ' ^ ;.^ -.-.^ ;.^ ",
"[ [ _ [ _ _ ' ' ` f w A A A m v z Z 6 G K K K A Z Z Z Z e ) [ ) ^ ;.^ ^ -.^ ^ ;.",
"[ [ _ _ ' ' ) [ f S A Z Z A Z m v x 6 Z G K K v m Z A A A s [ _ ! ^ ^ ^ -.! ! ^ ",
"_ _ _ _ ) ' ) ) w Z A A Z A Z A v Z M B G K A v v A K A A Z f f -.^ ;.^ ^ ^ -.^ ",
"( ( _ _ ) Q Q a Z A G A K A A A A A A A A Z Z v Z G G G A A 7 _ ^ ^ ^ ^ ^ ^ ^ ! ",
"( f _ _ ' Q ' S A A A G A K K G K K K K A A A A K K K A G Z Z p ^ ^ ^ ^ -.! ^ -.",
"( ` ( ( ` ( p C A A G G G K K P K I I I P K K K G G K G G A Z B Q Q Q ^ ^ ^ ! ' ",
"` ( Q Q ( ( B V A A G K K K K J K K I I P P P I P K K G A A A A = Q ! ^ ! ' ^ ! ",
"( ( _ Q ( f Z Z A G G G K Y Y Y I I I R P P P P P K J G G A A Z d Q ! ! ! ^ ! ! ",
"( ( f Q ( u v A A G G G K K Y T R R R R T T T T P P H H G G Z C F ! ! ! ^ ^ ! ! ",
"_ Q _ Q Q q V A C C H J J J J E R R R R W E E E J J J J J G n n N Q Q ! ! ! ! ! ",
"Q Q Q ) Q N V Z G G H J J J E E I E R R W W J E W J J J H G Z n 0 Q Q ! ! ! ! ! ",
"Q Q Q Q Q c V V G G J J J E T J R R R E W W J W E E J J G G A C , Q Q Q ! ! ! ! ",
"_ % Q Q % 7 b V n G J J J J J T R R E E W W W W J J J J G G A Z ; Q Q Q ! ! ! ! ",
"% % Q _ Q 2 z C n G G H J J J J R R E E E E W J J J H H G C C b > Q Q Q Q Q Q Q ",
"Q Q Q $ Q * k z n G G H H J J J R R E E E J E J J H H G G n C l # Q Q Q $ Q Q Q ",
"Q _ Q Q % Q 5 k z n G G H H J J R K T E E J E E J J H G C C l 4 Q Q Q Q Q # $ Q ",
"$ Q % $ % $ t k k k z z C C G G K K K J J E J J J J G n n z k 1 Q Q Q Q Q Q Q $ ",
"% Q Q % Q % % k o k x x c V V V C C C V C C n n n n c n l k k y Q $ Q Q $ Q Q Q ",
"% % % Q % Q Q 5 k o o l x c b C n n C n C n n C b b l l k k O % $ Q Q $ Q $ $ Q ",
"Q _ $ $ % % $ t k k k k l l x z z c b b b c c z z k z k k k < % Q $ Q $ $ $ Q $ ",
"$ % $ Q % % % % l k k l l l z x c z z c z z c z z z k k k O % % $ $ $ Q Q Q $ Q ",
"% % % % % % % % 5 k l l l z z b c c c z c z c c z z z z o @ % % $ $ $ $ $ $ Q Q ",
"% % % % % % % % 2 z x l c c z z c c c c z z c z z l z o : % % $ $ Q $ Q $ $ $ $ ",
"$ % % $ % % % $ % z z z c c b c b c b b c b c c l k o X + % % % Q Q $ $ $ $ $ $ ",
"% % % % % % % % Q 1 x c c b z b c b c b b c c l o o o , $ % % % Q Q # $ Q $ Q Q ",
"% % % $ % % % % % # 4 M z b c C b b n b b z z k k X X & $ Q $ # Q Q Q $ Q $ # Q ",
"% % % % % % % % % Q # 5 z c c c b b b b b z k k k k y Q Q Q $ $ Q Q $ $ $ $ Q Q ",
"% % % % % % % % % % % $ < M c c b b b b z z z k X r Q Q Q Q $ $ $ $ $ $ $ $ $ Q ",
"$ % % % % % % % % % % % Q % ; k k z z z b z k . @ ! ! ! Q # $ $ $ $ $ Q $ $ $ $ ",
"% % $ $ % % % % % % % % $ $ Q # ; X X k k X - $ Q Q Q $ $ $ Q Q $ $ $ $ $ $ $ $ ",
"% % $ $ $ % $ % % % % % $ $ $ $ Q # r ; - + Q $ ! Q Q Q $ $ Q Q Q # $ $ $ Q $ Q ",
"% % $ $ % % % % % % % % Q $ $ $ $ $ $ Q # Q Q Q ! Q Q Q $ $ $ Q Q Q $ $ $ # Q Q ",
"% % $ $ % % % % % % % % % $ $ $ $ $ $ Q Q Q Q # Q Q & Q $ Q $ # Q Q Q $ $ $ Q Q "
};
