/* XPM */
static char *_e17482611934cc0f011577f90f42c41in8tZkRKI4Ug8twf[] = {
/* columns rows colors chars-per-pixel */
"40 40 36 1 ",
"  c None",
". c #21CB27",
"X c #21D026",
"o c #22D927",
"O c #21DF27",
"+ c #22D828",
"@ c #21EC27",
"# c #36BA62",
"$ c #36BD61",
"% c #37C362",
"& c #36C862",
"* c #36D062",
"= c #4CAE9D",
"- c #4BB49D",
"; c #53A7B0",
": c #52ABB0",
"> c #5089C7",
", c #528BC9",
"< c #538CCA",
"1 c #548CCB",
"2 c #558ECC",
"3 c #568ECD",
"4 c #5790CE",
"5 c #5991D0",
"6 c #5B93D2",
"7 c #5D95D4",
"8 c #5F97D6",
"9 c #6098D6",
"0 c #6098D7",
"q c #6198D7",
"w c #6099D7",
"e c #6098D8",
"r c #6198D8",
"t c #6099D8",
"y c #6199D8",
"u c #6199D9",
/* pixels */
"        7yyyyyyyyyyy                    ",
"        yy755775577e                    ",
"     8yyyy>>,,>,>>6yyyy                 ",
"    yy7222>157552,2225yyy               ",
"   8yy6>,>>2yyyy6,>>>27yy               ",
"   yy>>>6yyyyyyyy0y0>>,6e               ",
"   y8>,27yyyyyyyyyyy22,6y               ",
"  yyy>2yyyyyyyyyyyyyy5>5yyy             ",
"  y52>2yyyyyyyyyyyyyy6,,2yq             ",
"  y2>>2yyyyyyyyyyyyyy5>>>yy             ",
"y8y2>yyyyyyyyyyyyyyyyyy2>yqq            ",
"yy52>yyyyyyyyyyyyyyyyyy2>67y            ",
"y6>>>yyyyyyyyyyyyyyyyyy2>>2y            ",
"y6>46yyyyyyyyyyyyyyyyyy75>2y            ",
"y6>6yyyyyyyyyyyyyyyyyyyyy,2y            ",
"y6>6yyyyyyyyyyyyyyyyyyyyy>2y            ",
"y6>6yyyyyyyyyyyyyyyyyyyyy>2q            ",
"y6>6yyyyyyyyyyyyyyyyyyyyy>4y            ",
"y6>6yyyyyyyyyyyyyyyyyyyyy>4q            ",
"y6>6yyyyyyyyyyyyyyyyyyyyy>2q            ",
"y6>6yyyyyyyyyyyyyyeeeyyyy>4y            ",
"y6>6yyyyyyyyyyyyyy:==;yyy>,q            ",
"y6>6yyyyyyyyyyyyyy*@+%qyy>2q            ",
"y6>6yyyyyyyyyyyyyy&@.$yyy>4y            ",
"y6>6yyyyyyyyyyyyyy%+.$yyy>48            ",
"y6>6yyyyyyyyyyyyyyyyyyyyy>4u            ",
"y6>6yyyyyyyyyyyyyyyyyyyyy>4u            ",
"y6>6yyyyyyyyyyyyyyyyyyyyy>,u            ",
"y6>6yyyyyyyyyyyyyyyyyyyyy>4y            ",
"y6>6yyyyyyyyyyyyyyyyyyyyy>,q            ",
"y6>6yyyyyyyyyyyyyyyyyyyyy>2q            ",
"y6>6yyyyyyyyyyyyyyyyyyyyy>4y            ",
"y6>6yyyyyyyyyyyyyyyyyyyyy>2y            ",
"y6>6yyyyyyyyyyyyyyyyyyyyy>2y            ",
"y6>6yyyyyyyyyyyyyyyyyyyyy>2y            ",
"y6>6yyyyyyyyyyyyyyyyyyyyy>2y            ",
"y6>4666666666666666666666>2y            ",
"y6>>>>>>>>>>>>>>>>>>>>>>>>2y            ",
"y86666666666666666666666667y            ",
"yyyyyyyyyyyyyyyyyyyyyyyyyyyy            "
};
