/* XPM */
static char *_2915a41874544d39467c50977bc82723eCnpv5dhy8cEDAZ[] = {
/* columns rows colors chars-per-pixel */
"40 40 174 2 ",
"   c #070605",
".  c #15140D",
"X  c #1B190E",
"o  c #131313",
"O  c #1D1B13",
"+  c gray11",
"@  c #211F13",
"#  c #272519",
"$  c #342F17",
"%  c #322E1C",
"&  c #3B361C",
"*  c #3F3B1F",
"=  c #232322",
"-  c #292724",
";  c #2F2C21",
":  c #2C2C2B",
">  c #322F23",
",  c #373427",
"<  c #3D3926",
"1  c #32312D",
"2  c #343333",
"3  c #3A3936",
"4  c #3B3B3B",
"5  c #423A1C",
"6  c #423E28",
"7  c #423B3B",
"8  c #4A411E",
"9  c #4B4323",
"0  c #514B26",
"q  c #594F26",
"w  c #544D29",
"e  c #5C5227",
"r  c #56502D",
"t  c #5D552C",
"y  c #454332",
"u  c #44403C",
"i  c #534E37",
"p  c #5E5732",
"a  c #655826",
"s  c #665C2B",
"d  c #6A5E2C",
"f  c #665E36",
"g  c #6C612E",
"h  c #74652D",
"j  c #6C6333",
"k  c #6F6935",
"l  c #6D663D",
"z  c #756A33",
"x  c #7C6F35",
"c  c #726638",
"v  c #7B743A",
"b  c #5F3C42",
"n  c #444343",
"m  c #4B4B4A",
"M  c #545147",
"N  c #56544D",
"B  c #535353",
"V  c #5E5C56",
"C  c #5B5B5B",
"Z  c #704048",
"A  c #6F4D52",
"S  c #7C4851",
"D  c #625A55",
"F  c #696344",
"G  c #69644B",
"H  c #746D40",
"J  c #7C734E",
"K  c #696654",
"L  c #736E59",
"P  c #7D7551",
"I  c #7E775D",
"U  c #656564",
"Y  c #696565",
"T  c #6B6B6B",
"R  c #78756B",
"E  c #747474",
"W  c #7C7B73",
"Q  c #7B7B7A",
"!  c #816E2E",
"~  c #837436",
"^  c #887B3C",
"/  c #873C48",
"(  c #A7384C",
")  c #84454E",
"_  c #A74254",
"`  c #8A7D46",
"'  c #847C49",
"]  c #8A6B5F",
"[  c #827B54",
"{  c #807A5D",
"}  c #985B66",
"|  c #BD4F63",
" . c #AE5D6A",
".. c #B76473",
"X. c #C05D6F",
"o. c #C46677",
"O. c #8E823E",
"+. c #93813C",
"@. c #8D8544",
"#. c #8E834B",
"$. c #948645",
"%. c #948844",
"&. c #94884A",
"*. c #9B8C4D",
"=. c #9A9148",
"-. c #8A815C",
";. c #948A52",
":. c #958A53",
">. c #92895A",
",. c #9D9153",
"<. c #A09049",
"1. c #A3954B",
"2. c #A49D52",
"3. c #A2965B",
"4. c #B3A557",
"5. c #B0A55E",
"6. c #B9AB5B",
"7. c #898265",
"8. c #9D9563",
"9. c #858275",
"0. c #9D9671",
"q. c #ADA165",
"w. c #B4A963",
"e. c #B6AC6B",
"r. c #BCB16E",
"t. c #B5AD79",
"y. c #BAB17C",
"u. c #CBBE65",
"i. c #C7B96D",
"p. c #C8BB6C",
"a. c #C7BB77",
"s. c #CABE71",
"d. c #CFC162",
"f. c #D1C466",
"g. c #D3C56B",
"h. c #D4C86E",
"j. c #CCC273",
"k. c #D6CA74",
"l. c #D4CA77",
"z. c #D8CE7B",
"x. c #DAD07F",
"c. c #BD7A85",
"v. c #848483",
"b. c #898885",
"n. c #8D8D8C",
"m. c #928E85",
"M. c #939392",
"N. c #9C9C9C",
"B. c #A2A2A2",
"V. c #ADADAC",
"C. c #B3B3B3",
"Z. c #BCBBB5",
"A. c #BCBCBC",
"S. c #C0B882",
"D. c #C1BA97",
"F. c #DACF82",
"G. c #D4CA89",
"H. c #DAD183",
"J. c #DDD38D",
"K. c #DFD495",
"L. c #E3DB9A",
"P. c #C4C4C4",
"I. c #CFCDC5",
"U. c #CCCCCB",
"Y. c #D4D4D4",
"T. c #DBDBDC",
"R. c #E4E4E4",
"E. c #EBEBEB",
"W. c #EEEEEE",
"Q. c #EFEFF0",
"!. c gray94",
"~. c #F3F3F3",
"^. c #F5F5F5",
"/. c #F8F8F8",
/* pixels */
"T T Y C R.R.E.E.R.R.R.R.R.T.R.T.R.R.T.R.T.R.Y.T.T.U.P.P.Y.Y.U.Y.Y.R.U.P.U U U U ",
"T T T U T.R.R.R.R.R.T.T.R.R.R.T.Y.Y.U.Y.U.P.Y.U.U.A.C.C.T.P.P.P.A.T.A.A.U T U U ",
"T T T T T.E.R.T.E.R.R.R.T.R.E.R.Y.Y.T.T.P.P.P.U.Y.U.P.Y.U.P.P.U.U.Y.Y.A.U U U U ",
"Y T T T T.E.B.n.T.T.T.Y.Y.R.R.Y.T.Y.T.Y.A.A.C.P.A.A.A.A.P.A.P.A.A.P.U.A.U U C U ",
"T T T T A.R.R.v.U.E.R.R.T.E.E.Y.P.T.T.T.U.P.U.P.P.U.Y.P.P.Y.P.Y.Y.T.T.A.U U U T ",
"C T T E Y.R.R.T V.E.E.R.T.E.R.U.U.U.T.E.Y.U.A.A.P.C.A.P.Y.U.V.A.U.Y.P.C.U T U U ",
"C C T T P.T.E.R.M.W.~.T.T.E.R.T.T.T.T.T.C.A.U.U.U.B.A.A.P.A.C.P.P.P.P.C.U U T U ",
"B C U T U.E.E.R.R.W.E.T.Y.W.W.U.P.R.T.T.C.P.U.P.Y.A.A.C.P.P.P.A.C.P.Y.A.U T U T ",
"B B B U U.R.E.Q.W.~.R.Y.Y.W.~.U.U.Y.T.T.Y.T.P.U.U.P.A.C.U.U.Y.P.P.Y.U.P.T U T U ",
"m m B B Q P.R.Q.W.Q.R.Y.Y.~.W.T.T.T.R.Y.U.U.C.P.A.P.A.P.T.U.U.P.Y.R.Y.P.U T U U ",
"n n n m N.N.U.E.Q.E.E.T.T.W.~.R.P.v.Y D Y D E B.U.P.P.U.T.Y.U.P.U.T.U.A.T U T U ",
"n 4 4 3 B.Q U.E.Q.Q.U.T.Y.E.Y.C 7 S ) / ) Z b 2 M.A.A.P.P.U.A.P.U.U.U.C.T T T T ",
"4 4 2 2 A.Q Q v.U.E.Q.T.R.R.Q E c.o.X.( _ ( _ } u m.P.P.P.P.A.U.U.U.U.A.E T T T ",
"n 2 2 : C Q : v.n U.U.Y.R.V.U Q c...X.| .. .] b V K P.Y.U.Y.Y.Y.T.T.T.P.E E E E ",
"n 4 2 : Q v.2 B o N.R.R.R.n.D.K M A S ] 7.R V I y.0.I.T.Y.Y.T.R.E.R.R.Y.E E E Q ",
"n 4 2 : Q U U m n U.Y.Y.U.y 6 S.S.G { 0.[ >.G.x.,.9 Z.E.E.E.E.W.~.Q.Q.T.Q E E E ",
"m n 2 : Y.B Q B m R.E.A.R k.s.e.3.t.L.L.F.J.j.` v *.K E.E.~.W.E.Q.Q.~.T.E Q Q Q ",
"m 4 2 : R.2 v.o B P.A.: $ #.&.r.u.i.i.a.w.,.*.4.2.v 0 3 m U.!.E.~.~./.T.Q Q Q Q ",
"m 4 2 2 R.n T : = 2 T 3 z j w t < f [ P ` c f q t z z < m 4 E.!.~./.Q.R.E Q Q Q ",
"n 4 2 2 B.Q T B N.= 2 n I ' k v @.F >.J c ` ,.*.O.z e r 2 = v.E.~./.E.Y.E Q E E ",
"4 2 2 4 U 4 Y Q Q.Y.U U W 0.f x ~ 1.*.3.1.+.<.%.g g e t - Q 4 T.W.~.~.T.E Q E E ",
"m 4 4 4 Y.2 1 n.Q.E.m v.1 < % w v 6.4.=.+.$.%.^ z a e q > B C C E.~.Q.P.T E E E ",
"B m n m R.B.E B.^.R.n 2 > 5 X X # v =.z ! ! +.^ a z a $ # T T m Y.E.R.P.T E E E ",
"U C B C E.W.~.W.~.Q.v.2 5 ~ s & . X s g a ^ z ~ h d 8 9 G P.: B U.Q.E.U.U E E E ",
"T U U T T.W.~.~.Q.Q.E.W w.k e j g 6 @ % 9 d k j w w ;.>.{ Q n C R.~.E.Y.U E E E ",
"E E T E E.~.Q.Q.Q.Q.W.U.:.k.s.w.@.P c p O . l r.l.p.e.-.B.C 4 T.R.E.~.Y.T E E E ",
"E E Q Q E.Q.E.Q.Q.~.E.Q.[ z.k.k.h.x.x.l.w.r @ , ;.p.q.L U Q P.W.Q.R.R.T.T E E E ",
"E E E E Q.R.R.Q.Q.E.~.~.W j.z.z.k.x.H.l.k.l.i.l ; % >.M B Q W.R.W.P.T.U.E T E E ",
"Q E Q E R.E.~.W.Y.T.Q.E.Y.J f.k.d.k.k.k.f.h.h.k.$.,   : B Y.R.R.E.T.B.Y.E E T E ",
"E E E E E.R.Q.~.Q B.Q.E.Q.V.5.k.d.f.d.g.f.g.f.d.%.x = : o n.Y.E.E.~.E.T.T T T E ",
"E E E E R.T.Y.Q.E.N.E.~.~.R.R J.l.l.H.H.l.k.z.j.,.F B.Q B - T R.Y.Q.~.T.E T T E ",
"E E E E T.E.Q.~.E.T.Q.~.~.E.U M 8.G.K.J.H.H.J.3.i b.R.E.Q.B C W.R.E.~.T.T E E E ",
"E E E E E.T.^./.Q.E.^.Q.Q.R.B 4 + E N M L 9.B 4 : v.E.E.Q.R.R.R.R.T.Q.Y.E E E E ",
"E E E T T.E.T.^.~.R.Q.^.~.R.4 = n ^.E.Y.E.E.N.= o V.E.E.R.R.U.R.Q.Q.~.U.E E E E ",
"E E E E E.T.U.^.^.Q.Q.Q.^.A.n : Y./.Q./.~.W.M.2 o R.E.R.A.R.T.E.W.R./.Y.E E E E ",
"E E E E T.P.N.Y.^.^.Q.^.Q.E 3 E ~.Q.~.~.~.W.M.1 - R.E.R.v.C.Q.E.~.T.~.T.E E Q Q ",
"T E E E T.R.A.P.E.~.~.Q.E.B n T.~.^.~.E.R.R.M.= B Y.T.~.R.B./././.T.~.U.E E Q E ",
"E T E T R.P.A.V.E.W.W.E.U.n U /./.^.Q.R./.E.R.= U E.Q.E.Q.R.~./.~.~.~.Y.E E E E ",
"T T T T T.C.V.B.B./.^.Q.Y.2 T ~.~.Q.~.R.T.Q.Q.2 U T.~.W.~.Q.~.~.Q.R.^.T.E E Q Q ",
"T U U T A.E b.C.M.Y./.E.T.2 E ^.~./.E.Q.E./.E.C U T.E.~.Q.~././.W.R./.R.E E Q E "
};
