/* XPM */
static char *_4bf49a8f9de4561c53ff36a3d9ba913J3W967A0TKYBVcDs[] = {
/* columns rows colors chars-per-pixel */
"40 40 13 1 ",
"  c #BBBBBB",
". c gray75",
"X c #C0C0C0",
"o c gray77",
"O c #CBCBCB",
"+ c gray81",
"@ c #D0D0D0",
"# c #D7D7D7",
"$ c gray86",
"% c #DDDDDD",
"& c #E1E1E1",
"* c #E4E4E4",
"= c gray91",
/* pixels */
"&&%%&%&&*&*&*&#@&%O+@*#.+X++#&&&&&&&%%%&",
"%%%&%&%&&%&&&&#$#$@$&$#oXX+#$%%&&&&%%%$&",
"%%%%%&%&&%&&&%%@@$#$%##OXX#$&&&&%&%%%&%&",
"%%%&%&%&%%&&&&$%$####@$+Xo@%%&&&&&&&%%&&",
"$$%&&&&%%%%&&&&%$@@$#@$@oo#$&&&%%&&%%%&&",
"#$%&&&&*&%%&%&%%$$$##@$%$#$&**&%&*&&%&&*",
"$$%&%&%&&%%%%&&&#$@@+#$&&&&***&&*&&%&%&*",
"$$%&&&&%&&$%&&%$$#$###%&*&**=***&*&&&&**",
"#$%&&&%$&##%&%%$$$###$$&=**==**&&&&&&&**",
"$$%%&&&%&$$&&&%$#$@#$$%&***==*&&&&%&&&*=",
"$%%&&&*%$$%&%*%$@$@##$&&*==***%&&&%&%%**",
"%&%&&&&%%%$%&*%##$#@#%%%==*=*&&&&&&*&&**",
"$$%%&%%&%%$$%&%%$$#@%%%%**==**&&&&&&&&**",
"$$$%&%&%%&#$%&%%$%$%$$&%&&*%**&&&&**&&&&",
"#$$&%&&&%$$$$&%$$%$$&%%$%*&%*****&&&&&&*",
"##%%&&&&&%#%@%%%%%$$%#$$%&&%&=*=*&&&&%**",
"##$%&&%&%$$%$%%%%$$$$@%@&&*&%**=*&&&%&&=",
"#$#$%$&%%#$%$&%$$$###@$#&**&&&**&&%%&%&*",
"#$#$%$%%&$$&%%%%$&$O@#$$&&&&&&&=&%$$%%&*",
"%$$$%%$%%$$&$%$$$%@o#@$#&&**&*&*&%%$&%&=",
"%%#$%%$$&$%%$&$%%%@o#$$$%***&***%$$$$#%%",
"%$#$&%$$%#&%%%$%%%@@#$$@&**&&&***&$$+O$&",
"$$$$&%%#$$&&%&%%%%@O$$$#&&&***&**&&%%*==",
"%$$@%%%$#$%%%&$@$%##$%$#&&**&&*&&%%***=*",
"$#$+@%&%%%%&&%%#@$%@#%$$%&&*&&&%&%%&&&&&",
"#$%@@&%%&&%&%%%%%%#@@@$#%&&&&&%%%%&%&%%#",
"##$$%%&&&%&%#$%%%%@#$+@#$$&&&&%%%%%&%%$#",
"##$%%%&%%&%$$$%%%$#@##@#$%%%%%%%%%&%&&$$",
"#$%%%&%%&&%%$%$%%#@@###@#%%%%%%%$%%%&%%$",
"#$&%&&%%&%%&$%%$%$@+$@+##%&%&%$%#$%&%%&$",
"$$%%%&%&$%%%%%%$$$#@##@#$$%%%%$##$%$$&&%",
"$$%%%&%%%%&%%%$$$$@#$#$#$$&%%%###$$$$%&%",
"#$$$%%%%%&%&%%%%$$##$###$$%%%%###$$$%$&%",
"$$$%$$%%%%&%%%$$%$@@$####$%%%%$##$%$#$&%",
"#$$$%$$%%%%&$%#%%$@@$#$#@#@%%#$##$$$$%&%",
"#$$$$$$%%%%%$%$%$$#$$%@@###%%$#$$$$#$%%%",
"##$$#$$$%%%&$$%%%$$$&+ @@#$%%%$$#$$#@$%%",
"#$#$#$%%%%&%%$%&&%$$**$###%&&%&%$##$$%%%",
"#@#$$%%%&%%&%%%%%&%&$&&$#%&&&&&%$$#$$$$&",
"$$$&&&&*&&*&&&%$&&=%$$$%@%&&&&*&&%@##$%%"
};
