/* XPM */
static char *c0b6ba1d5c674f8ecaecbaa7c1d16affkTK3YnflI6HbcrjM[] = {
/* columns rows colors chars-per-pixel */
"40 40 28 1 ",
"  c #1B1F21",
". c #1E2326",
"X c #1F2428",
"o c #202427",
"O c #21262A",
"+ c #242A2D",
"@ c #262D31",
"# c #292E32",
"$ c #273033",
"% c #2B3235",
"& c #2E3539",
"* c #2F383B",
"= c #30373B",
"- c #32393E",
"; c #353C41",
": c #383F44",
"> c #374144",
", c #394246",
"< c #3C4549",
"1 c #3C494B",
"2 c #40474D",
"3 c #414A4E",
"4 c #444D52",
"5 c #465154",
"6 c #485156",
"7 c #4C545A",
"8 c #50595F",
"9 c #535D62",
/* pixels */
";;,2:,:::;;-;;:O#&##&$$$%%%,::,,<<-2,<,:",
";:=2,,,:;:;;--=+%%%&$$$@##+2-:-,,<-,,,::",
";:#<<<::;:::=;=#$$@$$$$$#@+-:=-;;;=;;:::",
"::#,,,::;==#-:;#++++++++#&%%:==-;-#&-:::",
"--=-%#@+OX+@#&;+&++OO+++@@X+OO@&##+####&",
"2<,:-,,2,@::,;*;>;::<O,;--;:::--&+OOO+,<",
"<<222---747;,<<11<115&43111<<<,,,;##$-3<",
"<12,----;41>><1<11344=2<11<,:;;:;>,-#&-<",
"11>>---;;2;-,><<1144=@<<111>>>>>;><>>+-<",
">>;----;;===&::<<14&;&;:1>>>1>>>>;>>>@-,",
"->;>-####O;;=&&-;<,%;%;;>1>11,>;:,,>-#;-",
"$%$+..oOOO=&+O###&&--+&%$+X+XXXX.+o+++#@",
">16787672:<,;:742<,1344246%:-*;**-$542,:",
"--:--2=&=:::;;3:;;::&&;;;<&$@@$%-&&52,<-",
"=----;=7:::,=&<;;;%%%&&=;;&@@@$*-&#,,,,-",
"-=----%2;:,,&#;=$%%%&&&&;;$@@$@*%=#-,<;-",
"----->+,->,2%+==$$$;&;;&;%X%@@&&&&o#:;;-",
"&&&&*>O1*=::#@,%%$#;&;;;;@X@+X@%=oo@=%##",
"--@o%%**%$%%=%$++&&;;;;;;::,:;@%==---.#=",
"-24=-%$*&====%%%751<<<<:<:<,,5,72:,,2==-",
"--2-$***&%%%#+++1<;;;;;;;---;<;4;--;-:--",
"-:-=$*%$%$$$++++@;;;;&%;---==:=:-----:--",
"::-#%*%$$@$@+$+o;;;@&;&;-*===&@-=----;-:",
":::o%%%$$@@@+++O%::<&&&&**&&&&O&-----;;:",
"=--o###++++++++O+&=-;O**%$$++$+%%&=%%--=",
"--*-----&.%--,=$#&===*;@.+X+$$@O%-----;-",
"223554343=932<<234-44171--%%##=#31>12<<<",
"::::>>,11<8-;,<23:442<11&=%$#@O@1>>>111>",
",>>:;>>,<;5%=,,23=7311>1;$$$$+XX**;1,,>>",
",>>=;->,<=2==--,2=<11<>;O@@@++X+$&$;1,<>",
">,>>;;>,,@,-=--,,%-1<;;&@@++@XX++&@+X>>>",
"***----:&o=-%%%%$$&&@#@;$%@@XXX+.$$++@;&",
"%#*-%o%%+ ++@#*%#%+-;-=&#@%%&o&=%==-;;;&",
">>159,93,1:::22127-922,<1<122-7:<<<<;&&;",
">>,15,51,>----::;2-9;:2<1111,#3-;<>>;=&=",
";;,11-51--->&&--;:-6-;:,111,-@:=*---;;;;",
";-,<:&3---=%&%=-;:=:--:21><:-O#=&&&*;&&;",
";;,12+3-==+#%=-:2:=-=-:,>>:--O&$%%%&;&;;",
"oooooo#++o+#+++o o oO+++$#+OOoO#+X++@#+O",
"<<&722222233323===&&&=&&*=&<433444*512<<"
};
