/* XPM */
static char *d795e9f8394e48878c089cab1577731bm9Uhhzrr7v96ZZaw[] = {
/* columns rows colors chars-per-pixel */
"40 40 244 2 ",
"   c #291525",
".  c #372A38",
"X  c #4F0D16",
"o  c #721411",
"O  c #5B231C",
"+  c #712D10",
"@  c #4C0E22",
"#  c #5B162A",
"$  c #740E25",
"%  c #69142C",
"&  c #78122A",
"*  c #681832",
"=  c #791835",
"-  c #532533",
";  c #712533",
":  c #1F5E3F",
">  c #68503C",
",  c #193652",
"<  c #283954",
"1  c #3B3B60",
"2  c #7F1A42",
"3  c #493750",
"4  c #652A4B",
"5  c #772F43",
"6  c #6C3656",
"7  c #753859",
"8  c #763C62",
"9  c #315152",
"0  c #1A6947",
"q  c #2E6B4C",
"w  c #29795A",
"e  c #1B4C69",
"r  c #314D6C",
"t  c #2A5679",
"y  c #385877",
"u  c #1D7A66",
"i  c #317568",
"p  c #26677C",
"a  c #514B53",
"s  c #6A5458",
"d  c #496D53",
"f  c #75624B",
"g  c #514B65",
"h  c #76546A",
"j  c #51706E",
"k  c #766569",
"l  c #666A78",
"z  c #706E75",
"x  c #981806",
"c  c #91150F",
"v  c #A91705",
"b  c #B61605",
"n  c #8D290D",
"m  c #993A04",
"M  c #BC2D05",
"N  c #B02F0E",
"B  c #A83902",
"V  c #B63802",
"C  c #8C1D25",
"Z  c #821636",
"A  c #86193B",
"S  c #8C1A3D",
"D  c #903428",
"F  c #C51502",
"G  c #DB1702",
"H  c #E41A02",
"J  c #C82903",
"K  c #D22804",
"L  c #9B4B04",
"P  c #A74603",
"I  c #AF5404",
"U  c #B26F02",
"Y  c #A64125",
"T  c #C34702",
"R  c #861E4C",
"E  c #931A43",
"W  c #961E49",
"Q  c #8B2647",
"!  c #952548",
"~  c #942456",
"^  c #863755",
"/  c #8D3053",
"(  c #A0345D",
")  c #932464",
"_  c #9B3D68",
"`  c #8E4D53",
"'  c #8C506F",
"]  c #856D62",
"[  c #A26276",
"{  c #1A8C44",
"}  c #28874B",
"|  c #2C9252",
" . c #39955C",
".. c #238567",
"X. c #33926E",
"o. c #238B73",
"O. c #2B887C",
"+. c #299C77",
"@. c #2BA476",
"#. c #34A77D",
"$. c #2BB17F",
"%. c #418F5D",
"&. c #478B66",
"*. c #598C6B",
"=. c #489467",
"-. c #54956C",
";. c #589774",
":. c #7D906F",
">. c #6A8B78",
",. c #74897E",
"<. c #68987B",
"1. c #76957B",
"2. c #47A474",
"3. c #70A67D",
"4. c #C08301",
"5. c #919277",
"6. c #B09E6F",
"7. c #A9A278",
"8. c #C1A171",
"9. c #305988",
"0. c #1A6E93",
"q. c #276589",
"w. c #376B8E",
"e. c #2B6694",
"r. c #2B6B9A",
"t. c #287499",
"y. c #377796",
"u. c #3D6CA3",
"i. c #2A77A2",
"p. c #3A76A6",
"a. c #3C7AAC",
"s. c #387CB2",
"d. c #44568C",
"f. c #497689",
"g. c #4A728F",
"h. c #42649A",
"j. c #5C6891",
"k. c #687A86",
"l. c #797B89",
"z. c #936084",
"x. c #877A85",
"c. c #A27287",
"v. c #1F8A87",
"b. c #269784",
"n. c #389B85",
"m. c #2A829A",
"M. c #27A888",
"N. c #2EAC88",
"B. c #2DB788",
"V. c #34BA89",
"C. c #28B996",
"Z. c #25BD9B",
"A. c #2D84A8",
"S. c #3A86AB",
"D. c #3090AC",
"F. c #2C8BB7",
"G. c #3789B5",
"H. c #2F96B9",
"J. c #3796B7",
"K. c #359BBC",
"L. c #22BDA2",
"P. c #36A1BE",
"I. c #48839A",
"U. c #5B8696",
"Y. c #6B828A",
"T. c #6A8D8C",
"R. c #728589",
"E. c #7A9485",
"W. c #7A9887",
"Q. c #778B93",
"!. c #7B939B",
"~. c #5EA584",
"^. c #6CAC86",
"/. c #77A589",
"(. c #4187A9",
"). c #4993A6",
"_. c #6699A0",
"`. c #2FC28E",
"'. c #30C58E",
"]. c #3BC38F",
"[. c #2CC395",
"{. c #26C19C",
"}. c #29C29A",
"|. c #31C690",
" X c #33CA94",
".X c #34CD99",
"XX c #39D29C",
"oX c #32CFA7",
"OX c #4BD098",
"+X c #6FD399",
"@X c #51D9A5",
"#X c #6EDAA9",
"$X c #2B90C6",
"%X c #2A97C7",
"&X c #329DC2",
"*X c #2DA4CB",
"=X c #33A5C3",
"-X c #32A8C6",
";X c #38B3CB",
":X c #3ABCD0",
">X c #3EC4D3",
",X c #58CFC7",
"<X c #93878D",
"1X c #839C89",
"2X c #8C8993",
"3X c #849696",
"4X c #969599",
"5X c #A78683",
"6X c #88A388",
"7X c #92A98B",
"8X c #97AD92",
"9X c #B0AF8F",
"0X c #A6B58B",
"qX c #969CA0",
"wX c #96AAA1",
"eX c #ABB1A9",
"rX c #C5B893",
"tX c #CDB991",
"yX c #9ACC96",
"uX c #B5C898",
"iX c #B7C9A4",
"pX c #8BE4A4",
"aX c #D8C697",
"sX c #D0C990",
"dX c #EBD38D",
"fX c #E0C797",
"gX c #E4CD92",
"hX c #E7D694",
"jX c #EED992",
"kX c #F1DE96",
"lX c #F4E39C",
"zX c #CBD8A5",
"xX c #D0D7B3",
"cX c #DCE4A9",
"vX c #E9EDAC",
"bX c #F5EAA2",
"nX c #F8F3AA",
"mX c #F6F8B5",
"MX c #FAFEBB",
"NX c #A6C0C2",
"BX c #D1D9C4",
"VX c #F4F6CB",
"CX c #E5EBD0",
"ZX c #F8FBD8",
/* pixels */
"MXMXMXMXMXMXMXMXMXMXMXMXMXMXMXMXMXMXMXMXMXMXMXMXMXMXMXVXMXMXMXMXmXMXMXMXMXMXMXMX",
"MXMXMXMXMXMXMXMXMXMXMXMXMXMXMXMXMXMXMXMXMXMXMXMXMXMXMXMXMXMXMXcX3XzX3XzXMXMXMXMX",
"MXMX0X .~.^.yXvXmXMXMXMXMXMXMXMXMXMXMXMXMXMXMXMXMXMXMXMXMXMXMXzXR.1X3X0X8X8XcXMX",
"MXmX..Z.{.'.[.`.+XzXmXMXmXiXzXmXmXMXmXMXMXmXMXMXmXmXvXiXzXiX1X1XwXW.>.1X>.R.7XMX",
"mXnXd [.{.'. XXX@X XyXMX7XW./.zXmXnXcXuXuX8X8X6X,.1X1XE.1XR.6X3XW.E.j W.-.;.*.mX",
"nXnXuX@.{.}..XoXpXpX|.yX1.1.wX5.E.W.W.E.,.W.W.1.E.E.E.E.E.1X<.<.| E.| /.| /./.vX",
"nXnXnX1.{.{.{.oXoXoX.XV.>.W.6X6X>.>.W.;.;.<. .<.1X>.~.<. .W.^.=.} 3.%.<. .{ -.bX",
"bXlXbXbX;.{.{.{.{.oX}.[.=.6X7X/.=. .-.| } 3.} ;.| } /.}  .3.| -.-.6X3.<.uX/.uXbX",
"lXlXlXlXkX>.Z.Z.Z.Z.}.Z.&.&.%.<.{ %.<.{ 2.<.} ^.0 -.0X/.1.uX6X0XsXgXhXhXlXbXlXlX",
"lXlXlXlXkXkX:.M.L.Z.`.[.~.} } 5.-. .1./.1.W.W.W.} 0XkXhXaX9Xn n 8.tXkXkXkXkXlXjX",
"jXjXjXjXjXjXkX7.O.Z.`.`.'.~.1.sXsX0XhXaXgX8XwX1X1.sXgXhXgXD J Y N 9XdXfXhXdXdXdX",
"dXdXdXdXdXdXdXdXtXj N.`.B.`.=.dXdXdXaX9X*.;.aXsXaXaXaXaX` J Y J F f 5.] f - - 6.",
"sX9XaXgXgXdXgXgXdXsX5.j #.V.#.sXsXgXaX;.+X#.7.aXaXtX` Y K J V K F @ E E S E _ 9X",
").).S._.9XaXfXfXfXfXaXrXd i $.q : rX5.+.$.OXX.aX5X` = x G H H b b % E E W E c.ZX",
",X#X:X-X=XU.rXtXaXaXaX5.d $.OX+XOX1.~.2.+.+X#.4Xz ( C b F H C E $ * E E ~ ~ c.ZX",
">X>X:X-X-X-Xw.9XtX5X9 V.OX@X+XpX@XV.;.V.V.B.V.,.k _ / x b c E W Z % E E ) ~ c.ZX",
"-X-X-X*X*X*X-Xt j t.+.].|.'.`.`.|. X} +...@.XXz k Q W E = ! ! ! 2 % E E ) R c.ZX",
"*X*X*X%X*X*X%XK.J.q.O.+.`.B.B.`.|.XX#.w #.w X.k ] $ & Z ! ( ~ W E # E E ) ~ c.ZX",
"$XG.$X$X$X0.S.(.(.).J.H.O.@.M.w B. X'.#.V. X9 <Xk $ $ Z ! ! E E Z % E E ) ~ z.ZX",
"d.9.1 1 < 0.S.(.(.J.H.i.p o...7X*.B.'.#.X.#.s <Xs C o = Z Z E E Z % E E ) R _ ZX",
"eX4X4Xh e (.a.(.J.A.t.r.q.o.u iXxX$.`.B. .j ] <Xs A $ $ $ = S S R @ E S 2 = ` ZX",
"qXqXx., p.a.p.).S.k.9.r.r.u o.eXZXX.`.|.: x.2X<Xs Q A & $ & S E E @ Z = % $ ' CX",
"qX4Xl 9.i.p.G.K.i.BX!.r.r.i o.6XZX;.V.[.+.<X2X<Xa ; ! & & & = = % @ % = @ X l.NX",
"4X4Xr $XJ.p.G.*Xt.BXxXe.t.p o.j ZX~.B.[.'.z 2Xz .   ; * * Z A S E E E W s 9Xl eX",
"4Xl d.G.S.a.(.&Xi.wXZXt r.q.o.u iX=.B.'.XXj - Q ^ ` ' k / E E E S ~ R ' k eXl.s ",
"c.g d.u.r.u.(.&XA.k.ZX9.r.e...o.: 0 `.'.XXX.l.R.Q.Q.3Xk.7 ^ ^ h z.l.Y.!.Q.k.!.xX",
"x.z 1 d.< u.a.K.F.r CXr r.e.i o.o.M.'.'..X`.k.!.l 3XY.qXQ.Y.Q.Y.k.l.Q.3XT.Q.wXZX",
"2Xx.3 h.e.u.s.(.*Xe.< , r.e.q.o.o.C.[.'.OXXXd Y.U.f.k.U.3X!.Q.k.3Xf.U.!.3XS.eXVX",
"3X2Xa A.K.h.(.G.=Xi.e.q.r.r.q.o.b.L.L.C.pX+Xi t.w.0.j m.U.g.t.f.U.i.y.e.y.g.qXVX",
"2Xl y.K.=XG.(.J.&XD.A.i.t.i.t.B.L.L.L..X#XOXw f.w.y.f.w.).f.y.U.U.g.s k.4XxXBXVX",
"x.y S.%XF.w.(.J.&X$XF.D.F.-XP.m.v.L.Z.C.@...d f.f.f.l l l h h ^ Q ~ = _ 7.eXVXVX",
"a I.=X*Xe , s.G.F.%X%X%X*X-X=XH.A.b.b.o.B.].3 ^ 5 A & A A Z & ! A E = _ h + xXVX",
"g P.;X;Xq.< s.s.s.F.$X%Xi.t.H.t.i M.L.{.[.$.7 E E Z S X / ! / ' # h ! ' O J D CX",
"g P.;XK.e.r.s.s.s.s.u.i.%X-Xt r n.Z.Z.{.V. .# $ S Q = n ; _ _ z.+ + ' [ n B J f ",
"h t D.p 1 s.r.s.s.$Xw.F.P.P.p r C.Z.`.+.0 # o c Z ! $ P Y ` _ h L L ` 6 P L P M ",
"6 6 - 4 r s.r.s.s.s.9.&XJ.P.p 9 M.{. Xo.4 * F G o ! + T 4.Y ~ 5 L U m # P L P J ",
"7 7 4 ) 1 u.9.e.p.S.9.(.P.P.i w {.[. XX.- o J U m * x P 4.P ; n P L I x V V J V ",
"7 4 8 j.1 9.9.s.G.i.y K.J.P.e u {.'..X .+ x V U I + M P I U m B J J M b B M B M ",
"6 4 4 h 1 1 h.h.p.t y K.).(.h b.[.'.$.+ o P L I P B x J J P + P K K H H v J B B ",
"6 4 6 _ 3 d.h.9.1   . m.S.j.h i [.'.> N o L L L G H b x K J x J K H H H G v M J "
};
